<?xml version="1.0" encoding="UTF-8" standalone="no"?>
<!-- Created with Inkscape (http://www.inkscape.org/) -->

<svg
   xmlns:dc="http://purl.org/dc/elements/1.1/"
   xmlns:cc="http://creativecommons.org/ns#"
   xmlns:rdf="http://www.w3.org/1999/02/22-rdf-syntax-ns#"
   xmlns:svg="http://www.w3.org/2000/svg"
   xmlns="http://www.w3.org/2000/svg"
   xmlns:sodipodi="http://sodipodi.sourceforge.net/DTD/sodipodi-0.dtd"
   xmlns:inkscape="http://www.inkscape.org/namespaces/inkscape"
   width="159.90384mm"
   height="129.375mm"
   viewBox="0 0 159.90384 129.375"
   version="1.1"
   id="svg8"
   inkscape:version="0.92.1 r15371"
   sodipodi:docname="fridge-1-a.svg">
  <defs
     id="defs2" />
  <sodipodi:namedview
     id="base"
     pagecolor="#ffffff"
     bordercolor="#666666"
     borderopacity="1.0"
     inkscape:pageopacity="0.0"
     inkscape:pageshadow="2"
     inkscape:zoom="0.49497475"
     inkscape:cx="240.72589"
     inkscape:cy="42.141464"
     inkscape:document-units="mm"
     inkscape:current-layer="layer2"
     showgrid="true"
     inkscape:window-width="1366"
     inkscape:window-height="705"
     inkscape:window-x="-8"
     inkscape:window-y="-8"
     inkscape:window-maximized="1">
    <inkscape:grid
       type="xygrid"
       id="grid4488"
       originx="-15.298077"
       originy="-313.05609" />
  </sodipodi:namedview>
  <metadata
     id="metadata5">
    <rdf:RDF>
      <cc:Work
         rdf:about="">
        <dc:format>image/svg+xml</dc:format>
        <dc:type
           rdf:resource="http://purl.org/dc/dcmitype/StillImage" />
        <dc:title></dc:title>
      </cc:Work>
    </rdf:RDF>
  </metadata>
  <g
     inkscape:label="Layer 1"
     inkscape:groupmode="layer"
     id="layer1"
     transform="translate(-0.42307693,-0.41264188)">
    <g
       id="g4631"
       style="stroke:#fff6cf;stroke-opacity:1"
       transform="matrix(0.76923077,0,0,0.76923077,11.176282,0.47674469)">
      <path
         sodipodi:nodetypes="ccccccccc"
         inkscape:connector-curvature="0"
         id="rect4485"
         d="M 15.875,20.510417 C 15.875,15.21875 19.84375,11.25 25.135417,11.25 h 63.5 c 5.291666,0 9.260416,3.96875 9.260416,9.260417 V 140.89583 c 0,5.29167 -3.96875,9.26042 -9.260416,9.26042 h -63.5 c -5.291667,0 -9.260417,-3.96875 -9.260417,-9.26042 z"
         style="opacity:1;fill:none;fill-opacity:1;stroke:#fff6cf;stroke-width:2;stroke-miterlimit:4;stroke-dasharray:none;stroke-opacity:1;paint-order:stroke fill markers" />
      <path
         sodipodi:nodetypes="ccccccccc"
         inkscape:connector-curvature="0"
         id="rect4485-0"
         d="m 19.84375,23.15625 c 0,-5.291667 2.645833,-7.9375 7.9375,-7.9375 h 58.208333 c 5.291667,0 7.9375,2.645833 7.9375,7.9375 V 138.25 c 0,5.29167 -2.645833,7.9375 -7.9375,7.9375 H 27.78125 c -5.291667,0 -7.9375,-2.64583 -7.9375,-7.9375 z"
         style="opacity:1;fill:none;fill-opacity:1;stroke:#fff6cf;stroke-width:1;stroke-miterlimit:4;stroke-dasharray:none;stroke-opacity:1;paint-order:stroke fill markers" />
      <path
         sodipodi:nodetypes="cc"
         inkscape:connector-curvature="0"
         id="path4507"
         d="M 26.458333,93.270833 H 87.3125"
         style="fill:none;stroke:#fff6cf;stroke-width:1.5;stroke-linecap:round;stroke-linejoin:miter;stroke-miterlimit:4;stroke-dasharray:none;stroke-opacity:1" />
      <path
         sodipodi:nodetypes="ccccccccc"
         inkscape:connector-curvature="0"
         id="rect4485-3"
         d="m 26.458333,69.458333 c 0,-1.683713 0,-1.683713 1.683713,-1.683713 h 1.683712 c 1.683711,0 1.683711,0 1.683711,1.683713 v 16.83712 c 0,1.683713 0,1.683713 -1.683711,1.683713 h -1.683712 c -1.683713,0 -1.683713,0 -1.683713,-1.683713 z"
         style="opacity:1;fill:none;fill-opacity:1;stroke:#fff6cf;stroke-width:1.5;stroke-miterlimit:4;stroke-dasharray:none;stroke-opacity:1;paint-order:stroke fill markers" />
      <path
         sodipodi:nodetypes="caaac"
         inkscape:connector-curvature="0"
         id="path4542"
         d="m 142.875,37.708333 c 10.58333,5.291667 14.18829,10.45529 18.4741,17.875259 3.34587,5.792661 4.7525,12.777544 4.88156,19.465826 0.14334,7.428154 -1.16795,15.214344 -4.58347,21.812243 -4.22819,8.167779 -8.18886,14.930009 -18.77219,20.221679"
         style="opacity:1;fill:none;fill-opacity:1;stroke:#fff6cf;stroke-width:4.5;stroke-linecap:round;stroke-miterlimit:4;stroke-dasharray:none;stroke-opacity:1;paint-order:stroke fill markers" />
      <path
         sodipodi:nodetypes="caaac"
         inkscape:connector-curvature="0"
         id="path4542-9"
         d="m 132.29167,50.9375 c 7.05555,3.527778 9.45886,6.970193 12.31607,11.916839 2.23058,3.861774 3.16833,8.518363 3.25437,12.977219 0.0956,4.952102 -0.77863,10.142896 -3.05565,14.541495 -2.81879,5.44519 -5.45924,9.953337 -12.51479,13.481117"
         style="opacity:1;fill:none;fill-opacity:1;stroke:#fff6cf;stroke-width:4.5;stroke-linecap:round;stroke-miterlimit:4;stroke-dasharray:none;stroke-opacity:1;paint-order:stroke fill markers" />
      <path
         sodipodi:nodetypes="caaac"
         inkscape:connector-curvature="0"
         id="path4542-3"
         d="m 119.0625,61.520833 c 4.23333,2.116667 5.67532,4.182117 7.38964,7.150105 1.33835,2.317064 1.901,5.111018 1.95263,7.786331 0.0573,2.971262 -0.46719,6.085739 -1.83339,8.724901 -1.69128,3.26711 -3.27555,5.972 -7.50888,8.08867"
         style="opacity:1;fill:none;fill-opacity:1;stroke:#fff6cf;stroke-width:4.5;stroke-linecap:round;stroke-miterlimit:4;stroke-dasharray:none;stroke-opacity:1;paint-order:stroke fill markers" />
      <path
         sodipodi:nodetypes="ccccccccc"
         inkscape:connector-curvature="0"
         id="rect4485-3-7"
         d="m 26.458333,101.20833 c 0,-1.683717 0,-1.683717 1.683713,-1.683717 h 1.683712 c 1.683711,0 1.683711,0 1.683711,1.683717 v 16.83712 c 0,1.68371 0,1.68371 -1.683711,1.68371 h -1.683712 c -1.683713,0 -1.683713,0 -1.683713,-1.68371 z"
         style="opacity:1;fill:none;fill-opacity:1;stroke:#fff6cf;stroke-width:1.5;stroke-miterlimit:4;stroke-dasharray:none;stroke-opacity:1;paint-order:stroke fill markers" />
    </g>
  </g>
  <g
     inkscape:groupmode="layer"
     id="layer2"
     inkscape:label="Layer 2"
     transform="translate(-0.42307693,-0.41264188)" />
</svg>
